<?xml version="1.0" standalone="no"?>
<!DOCTYPE svg PUBLIC "-//W3C//DTD SVG 20010904//EN"
 "http://www.w3.org/TR/2001/REC-SVG-20010904/DTD/svg10.dtd">
<svg version="1.0" xmlns="http://www.w3.org/2000/svg"
 width="1971.000000pt" height="2000.000000pt" viewBox="0 0 1971.000000 2000.000000"
 preserveAspectRatio="xMidYMid meet">

<g transform="translate(0.000000,2000.000000) scale(0.100000,-0.100000)"
fill="#000000" stroke="none">
<path d="M9590 19994 c-413 -17 -682 -38 -1000 -80 -2207 -286 -4291 -1355
-5834 -2994 -806 -855 -1424 -1782 -1893 -2835 -589 -1322 -887 -2780 -860
-4205 20 -1021 153 -1890 433 -2817 550 -1824 1610 -3448 3074 -4709 1350
-1164 3050 -1953 4800 -2228 567 -89 963 -120 1545 -119 385 0 585 10 940 44
1560 149 3077 685 4400 1553 384 252 772 548 1100 840 194 172 299 273 342
329 63 81 127 207 159 312 25 82 28 105 28 250 1 179 -14 251 -78 390 -115
249 -344 436 -613 501 -93 23 -295 23 -387 1 -181 -45 -292 -110 -484 -286
-944 -861 -2001 -1457 -3197 -1801 -529 -152 -1018 -240 -1630 -292 -201 -17
-961 -17 -1160 0 -881 75 -1628 250 -2407 563 -919 370 -1765 915 -2488 1604
-166 158 -483 488 -500 520 -13 24 -209 -294 2750 4465 405 652 891 1434 1081
1739 l344 554 5 -1744 c6 -1887 4 -1813 61 -2129 106 -593 359 -1024 727
-1239 216 -126 484 -186 719 -161 372 39 693 215 1038 572 222 228 364 426
692 958 94 151 383 619 643 1040 260 421 720 1166 1023 1655 567 919 660 1067
683 1085 11 10 14 -180 17 -1127 4 -1231 3 -1209 62 -1559 246 -1467 1206
-2449 2533 -2590 175 -19 520 -14 677 10 538 81 987 277 1420 623 137 108 406
376 506 503 457 578 722 1244 813 2040 35 302 41 792 16 1265 -80 1543 -496
3011 -1235 4360 -695 1268 -1704 2416 -2871 3265 -1523 1110 -3307 1752 -5164
1859 -194 12 -698 20 -830 15z m635 -1824 c566 -31 1054 -104 1570 -235 1121
-284 2147 -798 3055 -1528 743 -598 1387 -1339 1887 -2172 586 -976 979 -2129
1108 -3250 54 -470 81 -1199 55 -1480 -49 -529 -230 -962 -525 -1259 -142
-143 -316 -259 -475 -316 -139 -51 -210 -63 -370 -63 -123 0 -160 4 -241 26
-199 52 -297 105 -419 227 -180 178 -293 403 -364 720 -55 249 -56 283 -56
1565 0 1180 -6 1464 -36 1690 -81 624 -338 1113 -721 1373 -128 87 -314 165
-488 203 -91 21 -379 18 -482 -4 -479 -103 -933 -454 -1403 -1087 -111 -150
-244 -350 -400 -605 -197 -321 -2011 -3257 -2039 -3300 l-26 -40 -5 2155 c-6
2337 -4 2230 -60 2525 -102 531 -327 875 -685 1046 -437 209 -891 129 -1290
-229 -220 -197 -289 -294 -907 -1287 -294 -473 -803 -1290 -1130 -1815 -1565
-2510 -2267 -3637 -2634 -4227 -351 -564 -401 -640 -412 -625 -20 25 -171 337
-237 487 -343 784 -564 1624 -649 2460 -69 676 -57 1388 35 2035 340 2406
1718 4534 3764 5812 1143 714 2441 1123 3802 1197 215 12 571 12 778 1z"/>
</g>
</svg>
